PathFileType	4	(X/Y/Z)	Kaydara	
DataRate	CameraRate	NumFrames	NumMarkers	Units	OrigDataRate	OrigDataStartFrame	OrigNumFrames	
240.00	240.00	4	72	mm	240.00	225	359	
Frame#	Time	Hips			RightUpLeg			RightLeg			RightFoot			RightFoot_End			LeftUpLeg			LeftLeg			LeftFoot			LeftFoot_End			Spine			Spine1			Spine2			Spine3			Neck			Head			Head_End			RightShoulder			RightArm			RightForeArm			RightHand			RightHandThumb1			RightHandThumb2			RightHandThumb3			RightHandThumb3_End			RightInHandIndex			RightHandIndex1			RightHandIndex2			RightHandIndex3			RightHandIndex3_End			RightInHandMiddle			RightHandMiddle1			RightHandMiddle2			RightHandMiddle3			RightHandMiddle3_End			RightInHandRing			RightHandRing1			RightHandRing2			RightHandRing3			RightHandRing3_End			RightInHandPinky			RightHandPinky1			RightHandPinky2			RightHandPinky3			RightHandPinky3_End			LeftShoulder			LeftArm			LeftForeArm			LeftHand			LeftHandThumb1			LeftHandThumb2			LeftHandThumb3			LeftHandThumb3_End			LeftInHandIndex			LeftHandIndex1			LeftHandIndex2			LeftHandIndex3			LeftHandIndex3_End			LeftInHandMiddle			LeftHandMiddle1			LeftHandMiddle2			LeftHandMiddle3			LeftHandMiddle3_End			LeftInHandRing			LeftHandRing1			LeftHandRing2			LeftHandRing3			LeftHandRing3_End			LeftInHandPinky			LeftHandPinky1			LeftHandPinky2			LeftHandPinky3			LeftHandPinky3_End			
		X1	Y1	Z1	X2	Y2	Z2	X3	Y3	Z3	X4	Y4	Z4	X5	Y5	Z5	X6	Y6	Z6	X7	Y7	Z7	X8	Y8	Z8	X9	Y9	Z9	X10	Y10	Z10	X11	Y11	Z11	X12	Y12	Z12	X13	Y13	Z13	X14	Y14	Z14	X15	Y15	Z15	X16	Y16	Z16	X17	Y17	Z17	X18	Y18	Z18	X19	Y19	Z19	X20	Y20	Z20	X21	Y21	Z21	X22	Y22	Z22	X23	Y23	Z23	X24	Y24	Z24	X25	Y25	Z25	X26	Y26	Z26	X27	Y27	Z27	X28	Y28	Z28	X29	Y29	Z29	X30	Y30	Z30	X31	Y31	Z31	X32	Y32	Z32	X33	Y33	Z33	X34	Y34	Z34	X35	Y35	Z35	X36	Y36	Z36	X37	Y37	Z37	X38	Y38	Z38	X39	Y39	Z39	X40	Y40	Z40	X41	Y41	Z41	X42	Y42	Z42	X43	Y43	Z43	X44	Y44	Z44	X45	Y45	Z45	X46	Y46	Z46	X47	Y47	Z47	X48	Y48	Z48	X49	Y49	Z49	X50	Y50	Z50	X51	Y51	Z51	X52	Y52	Z52	X53	Y53	Z53	X54	Y54	Z54	X55	Y55	Z55	X56	Y56	Z56	X57	Y57	Z57	X58	Y58	Z58	X59	Y59	Z59	X60	Y60	Z60	X61	Y61	Z61	X62	Y62	Z62	X63	Y63	Z63	X64	Y64	Z64	X65	Y65	Z65	X66	Y66	Z66	X67	Y67	Z67	X68	Y68	Z68	X69	Y69	Z69	X70	Y70	Z70	X71	Y71	Z71	X72	Y72	Z72	

225	0.933	198.9409999999998	914.58397	126.699	252.90673999999944	896.295	52.69724000000001	157.32158999999956	501.04357000000005	-47.95206	139.96155	109.93224	-125.21261999999999	-11.249740000000202	33.59517999999999	-36.63266	159.07122999999956	906.49215	211.83087999999998	65.47295000000031	504.21721999999994	281.29	-7.958340000000135	79.48090999999998	369.32164	-129.23099000000002	-3.0337399999999994	246.75374999999997	133.29697000000033	1033.04375	80.35700000000003	73.09923999999955	1091.0138700000002	30.748950000000004	7.675790000000234	1144.50354	-24.951390000000004	-58.41679000000022	1184.33797	-84.01811	-130.2464399999999	1227.2184	-145.5136	-197.39259000000038	1266.54679	-198.96528	-337.22221999999965	1342.3673300000003	-210.76227	-86.13194999999996	1212.21823	-149.23977999999997	-27.7503999999999	1192.9992800000002	-262.10399	17.471589999999196	932.6387200000001	-272.8509899999999	14.590290000000095	828.9389799999999	-510.42015000000004	28.057020000000193	854.7483100000001	-537.7961800000002	16.74899000000005	867.61769	-570.39626	7.892720000000736	872.3047699999998	-593.93554	-0.32989999999972497	872.5548899999999	-614.2748999999999	28.207949999999983	842.0534499999999	-543.5719900000001	34.84040999999979	845.10239	-596.19255	26.458349999999882	845.82209	-631.39492	14.397579999999834	848.7458499999999	-647.7381399999999	-0.20542000000023108	852.83619	-657.5271099999999	24.690169999999853	830.2529400000001	-543.9485499999998	29.260189999999966	826.84428	-595.47715	19.611789999999928	826.0609199999999	-633.7671699999999	4.8200400000005175	828.83556	-653.4257400000001	-11.275389999999788	832.9452	-664.10799	22.16247999999996	821.8249700000001	-542.9021200000001	24.43514999999934	811.4156999999999	-588.26236	15.503950000000259	809.1350799999999	-621.42907	0.9591200000004392	810.9629	-640.28136	-14.305929999999535	814.42488	-650.2732599999999	18.05750999999964	812.1261699999999	-539.9327200000001	18.03917999999976	796.55659	-579.82497	10.06278999999995	792.2830199999999	-605.86263	-0.9451800000006187	792.4323799999999	-619.3615400000001	-14.697090000000571	794.8178199999999	-628.06769	-126.7219500000001	1213.9379199999998	-99.75046	-178.98736000000008	1161.03211	3.6288599999999995	-69.33116999999947	988.30475	-163.32733000000002	-15.171769999999924	862.3534700000001	-383.11028	17.46560000000045	877.6734499999999	-400.34461999999996	51.543829999999616	866.1694300000001	-408.25593	73.2148500000003	854.44031	-415.13302999999996	89.51786000000084	841.48183	-422.03617	12.779969999999594	867.4463400000001	-408.59042999999997	49.11743000000024	854.10149	-444.97329	75.9628500000008	835.76431	-460.88099	92.36715999999979	823.4602	-461.66773	105.75243000000046	812.6663899999999	-456.1786000000001	5.983520000000681	857.3690199999999	-410.59659	37.749330000000555	838.90462	-447.17115	66.0303299999996	817.5974099999999	-464.66455999999994	85.33555999999953	802.13022	-465.67846000000003	99.74521999999979	790.0171000000001	-459.70381999999995	0.232480000000578	850.6548800000002	-411.19724999999994	23.644130000000587	828.4687199999997	-444.82370000000003	47.209060000000136	808.59928	-460.1500700000001	65.25434000000041	792.99063	-461.17001000000005	78.5300299999999	781.2746000000002	-455.57222	-7.274819999999636	842.7915000000002	-409.95524	9.507680000000619	817.80834	-440.41822	26.58309999999983	799.9688799999999	-452.66686	38.87734999999975	787.65087	-453.39912999999996	50.137869999999566	776.7354099999999	-448.43367
226	0.938	198.9409999999998	914.58397	126.699	252.8206599999994	896.1954099999999	52.6592	157.27262999999948	500.9773599999999	-48.156299999999995	139.9605900000006	109.86933999999998	-125.44439000000001	-11.261019999999917	33.52927999999999	-36.88464	159.14310000000023	906.5860299999999	211.87336999999997	65.52387999999974	504.29835	281.2303800000001	-7.998109999999542	79.53649999999999	369.06282999999996	-129.26573999999982	-2.985030000000001	246.49461	133.36420999999973	1033.07403	80.3392	73.21598999999969	1091.0531100000003	30.6816	7.827540000000226	1144.5382499999998	-25.06417	-58.270189999999275	1184.33682	-84.14929000000001	-130.10433999999987	1227.1748400000001	-145.66908000000004	-197.2498799999994	1266.4707	-199.14546000000004	-337.0553200000004	1342.3095	-211.11064	-86.07735000000048	1211.93379	-149.45222999999996	-28.3433500000001	1191.3985400000001	-262.41768	14.271049999999377	930.5013699999998	-270.46882000000005	9.633820000000014	822.81219	-506.22841000000005	23.193849999999657	847.99271	-534.13877	11.857070000000022	860.33475	-566.9322	2.9437299999999595	864.64752	-590.52145	-5.358139999999366	864.57956	-610.8300200000001	23.221480000000156	835.1904100000002	-539.67434	29.66675000000032	837.19374	-592.3682899999999	21.149570000000494	837.31628	-627.54537	9.046809999999823	840.02729	-643.8942199999999	-5.56260999999995	844.0484799999999	-653.70226	19.609239999999772	823.41327	-539.81438	23.945620000000417	818.9973599999998	-591.28666	14.137899999999718	817.56903	-629.51754	-0.7101999999995314	820.0901999999999	-649.16776	-16.815419999999904	824.1257	-659.86352	17.019379999999728	815.0269199999999	-538.59921	19.0279900000005	803.74647	-583.76321	9.946179999999913	800.9120700000001	-616.8462100000002	-4.659250000000611	802.4998499999999	-635.6733800000001	-19.93645000000015	805.8942499999999	-645.66988	12.849969999999303	805.4188199999999	-535.43135	12.548890000000029	789.1004800000001	-575.02206	4.434709999999541	784.40037	-600.94338	-6.6257599999999	784.38283	-614.4001199999998	-20.393229999999676	786.7130999999999	-623.09662	-126.48419000000013	1214.1714099999997	-99.83391	-178.4142899999997	1162.3455	4.258940000000001	-70.99342999999953	987.3155799999998	-161.74972	-19.44159000000036	857.0988499999999	-379.66603	13.231600000000071	871.72931	-397.42365	47.10982000000058	859.6891899999999	-405.39609	68.58773999999994	847.5876099999999	-412.23354000000006	84.6837400000004	834.31938	-419.0332800000001	8.361899999999878	861.41408	-405.4501200000001	44.249370000000454	847.00535	-441.87382	70.75223000000005	828.0774300000002	-457.66356999999994	87.00617000000057	815.5700199999999	-458.36044	100.3092000000006	804.71853	-452.78578000000005	1.4333699999997407	851.3832900000001	-407.2242600000001	32.68884999999955	831.9063400000001	-443.71321	60.580039999999826	809.96429	-461.04698	79.69616999999926	794.25652	-461.93761000000006	94.01212000000032	782.08257	-455.8621600000001	-4.399639999999636	844.7274500000001	-407.66092000000003	18.483079999999973	821.6793999999999	-441.07106999999996	41.69268999999986	801.26824	-456.22681	59.547310000000834	785.4337	-457.11112	72.73097000000053	773.66339	-451.41062	-11.987259999999878	836.97567	-406.22116	4.259970000000067	811.26466	-436.3670599999999	21.028909999999996	793.0132900000001	-448.43088	33.173469999999725	780.5410999999999	-449.04090999999994	44.34635999999955	769.58366	-443.97105
227	0.942	198.9409999999998	914.58397	126.699	252.72742000000017	896.09005	52.61767	157.1921199999997	500.88381999999996	-48.25618999999999	139.95718000000033	109.78098999999999	-125.58778	-11.262369999999464	33.43635	-37.028459999999995	159.2212100000006	906.68508	211.91906000000003	65.58676999999989	504.38410000000005	281.17828	-8.032760000000053	79.59766999999998	368.80997	-129.28989	-2.92995	246.23546000000002	133.43578999999954	1033.10724	80.32289000000002	73.33347000000049	1091.09232	30.61676	7.974699999999757	1144.5679499999999	-25.17293	-58.134869999999864	1184.3242200000002	-84.27329	-129.98060999999961	1227.11249	-145.81415000000004	-197.13196999999946	1266.36892	-199.31217999999998	-336.91133999999965	1342.2197500000002	-211.50347	-86.04329999999936	1211.6291999999999	-149.65572	-28.978439999999864	1189.7315800000001	-262.70527	10.991539999999986	928.3447999999997	-267.94874000000004	4.514580000000024	816.5960200000001	-501.76769999999993	18.156169999999292	841.11654	-530.2207	6.779280000000654	852.9059	-563.2030399999999	-2.19916000000012	856.82823	-586.83571	-10.587110000000393	856.43001	-607.10507	18.058650000000853	828.20868	-535.50462	24.296759999999267	829.12991	-588.25351	15.632150000000365	828.6332699999999	-623.3912599999999	3.482289999999921	831.1213200000001	-639.74064	-11.136040000000321	835.0672100000002	-649.5659500000002	14.352359999999862	816.46044	-535.39935	18.43579999999929	811.0046699999998	-586.79254	8.455469999999877	808.90818	-624.9478699999999	-6.455079999999725	811.16394	-644.5830599999999	-22.57278999999926	815.1188100000002	-655.2901	11.70107999999982	808.1205099999999	-534.00969	13.428979999999683	795.94371	-578.9519799999999	4.185120000000097	792.53626	-611.93589	-10.486719999999877	793.87298	-630.7309	-25.778589999999895	797.1939	-640.72966	7.468869999999697	798.60995	-530.63737	6.870700000000397	781.5238700000002	-569.8994599999999	-1.3901200000000244	776.3833200000001	-595.6905299999999	-12.507179999999607	776.1915699999997	-609.09919	-26.292339999999967	778.4619000000001	-617.78352	-126.25772000000052	1214.39248	-99.90772999999999	-177.83144999999968	1163.67946	4.907919999999998	-72.66442000000006	986.3392300000002	-160.08883	-23.735579999999572	851.93039	-376.05582	8.953269999999975	865.8486800000001	-394.34904000000006	42.6216800000002	853.2684999999999	-402.37616	63.89994999999999	840.79281	-409.1653299999999	79.7836900000002	827.21442	-415.85095	3.897189999999682	855.44533	-402.1431799999999	39.30707999999959	839.9506	-438.5885	65.45535999999993	820.42684	-454.2433500000001	81.55732999999964	807.71942	-454.84271	94.78078000000005	796.8173400000001	-449.17813	-3.1614300000001094	845.46538	-403.67458	27.55786999999964	824.9566199999999	-440.05335	55.04649999999947	802.37482	-457.20763999999997	73.97177999999985	786.4307499999999	-457.96512999999993	88.19700000000012	774.20388	-451.78377000000006	-9.07438000000002	838.8713299999998	-403.94015	13.257779999999912	814.94688	-437.10587	36.101370000000315	793.99042	-452.0723300000001	53.76386999999977	777.9344900000001	-452.81079	66.85840999999982	766.11751	-447.0024399999999	-16.738569999999527	831.23664	-402.29499999999996	-1.044409999999516	804.7875	-432.09333000000004	15.410219999999754	786.1225100000001	-443.9554099999999	27.404379999999946	773.49997	-444.43477999999993	38.49242000000049	762.5075999999999	-439.2554200000001
228	0.946	198.9409999999998	914.58397	126.699	252.63008999999965	895.9803800000001	52.574539999999985	157.08941999999934	500.76886	-48.27352	139.95154000000002	109.67304	-125.66213000000002	-11.26372000000083	33.32106	-37.10182	159.30269000000044	906.7881100000001	211.96647000000002	65.63317000000006	504.47739999999993	281.12164000000007	-8.114870000000337	79.66891	368.53805000000006	-129.35767000000033	-2.8569700000000005	245.94819999999999	133.51084999999966	1033.1421300000002	80.30613	73.45528999999988	1091.1340399999997	30.551459999999995	8.12616000000071	1144.60027	-25.281950000000002	-57.9967800000004	1184.31326	-84.39642000000002	-129.85552999999982	1227.05067	-145.95744	-197.01393999999982	1266.26678	-199.47619	-336.7602200000001	1342.1365	-211.92663	-86.01102999999966	1211.32079	-149.85711000000003	-29.63449000000037	1188.0177899999999	-262.97103000000004	7.647229999999581	926.19205	-265.31593	-0.7486600000001999	810.31966	-497.05747999999994	12.96320999999989	834.1473000000001	-526.06006	1.5350699999999051	845.35868	-559.2257	-7.516489999999976	848.87467	-582.8943999999999	-15.99739000000045	848.1344400000002	-603.1154300000001	12.738319999999476	821.13633	-531.0806500000001	18.7491	820.9386599999998	-583.8635999999999	9.924649999999929	819.8012599999998	-618.9466300000001	-2.277350000000297	822.05657	-635.29093	-16.906989999999496	825.9215499999999	-645.1315799999999	8.938100000000304	809.42318	-530.72127	12.748999999999796	802.89501	-582.01026	2.5825999999997293	800.1077500000001	-620.07214	-12.396450000000186	802.08677	-639.6850199999999	-28.529250000000502	805.95507	-650.40096	6.225989999999911	801.1349400000001	-529.1514199999999	7.656029999999191	788.03711	-573.8445	-1.761489999999867	784.0379	-606.7126399999999	-16.50550000000021	785.1131700000001	-625.4679100000001	-31.814440000000104	788.3553	-635.46639	1.932409999999436	791.72935	-525.56882	1.0222200000007433	773.8573300000002	-564.47339	-7.394270000000688	768.26307	-590.11931	-18.57201999999961	767.89036	-603.4736000000001	-32.37693000000036	770.0964799999999	-612.14308	-126.02568999999949	1214.6192899999999	-99.98081	-177.22648000000027	1165.0517899999998	5.563139999999999	-74.3426899999995	985.38653	-158.35425000000004	-28.092529999999897	846.7676200000001	-372.2402599999999	4.591760000000249	859.94896	-391.07934	38.04014999999981	846.82352	-399.15312	59.11185999999998	833.9715299999999	-405.88433000000003	74.77779999999984	820.08234	-412.44425	-0.6530199999997421	849.45833	-398.62792	34.251390000000356	832.85469	-435.0725299999999	60.03265999999985	812.7295999999999	-450.57385	75.98074999999972	799.8251	-451.06749	89.12694999999985	788.87914	-445.3085	-7.839789999999994	839.53434	-399.90603	22.317159999999603	817.97421	-436.1471399999999	49.39001999999982	794.74743	-453.10028	68.1223200000004	778.57098	-453.7141099999999	82.25944000000072	766.29871	-447.4215899999999	-13.83068000000003	833.0062	-399.99361999999996	7.92899000000034	808.1910900000001	-432.88429999999994	30.39545999999973	786.68558	-447.64128000000005	47.86398000000008	770.41246	-448.22303	60.871979999999894	758.5561000000001	-442.30158000000006	-21.567730000000665	825.4947900000001	-398.13578000000007	-6.444730000000163	798.29791	-427.55395000000004	9.68742999999995	779.21763	-439.19621	21.530179999999746	766.44846	-439.53609000000006	32.5358499999993	755.42799	-434.24203
